HIERARCHY
ROOT SimulationBone
{
	OFFSET 0.000000 0.000000 0.000000
	CHANNELS 6 Xposition Yposition Zposition Zrotation Yrotation Xrotation 
	JOINT Hips
	{
		OFFSET 0.000000 0.000000 0.000000
		CHANNELS 6 Xposition Yposition Zposition Zrotation Yrotation Xrotation 
		JOINT LeftUpLeg
		{
			OFFSET 0.103462 1.857831 10.548496
			CHANNELS 3 Zrotation Yrotation Xrotation
			JOINT LeftLeg
			{
				OFFSET 43.500000 -0.000038 -0.000010
				CHANNELS 3 Zrotation Yrotation Xrotation
				JOINT LeftFoot
				{
					OFFSET 42.372192 0.000011 0.000010
					CHANNELS 3 Zrotation Yrotation Xrotation
					JOINT LeftToe
					{
						OFFSET 17.299999 0.000001 -0.000001
						CHANNELS 3 Zrotation Yrotation Xrotation
						End Site
						{
							OFFSET 0.000000 0.000000 0.000000
						}
					}
				}
			}
		}
		JOINT RightUpLeg
		{
			OFFSET 0.103456 1.857825 -10.548502
			CHANNELS 3 Zrotation Yrotation Xrotation
			JOINT RightLeg
			{
				OFFSET 43.500038 -0.000023 0.000011
				CHANNELS 3 Zrotation Yrotation Xrotation
				JOINT RightFoot
				{
					OFFSET 42.372261 -0.000008 0.000011
					CHANNELS 3 Zrotation Yrotation Xrotation
					JOINT RightToe
					{
						OFFSET 17.299994 -0.000004 0.000002
						CHANNELS 3 Zrotation Yrotation Xrotation
						End Site
						{
							OFFSET 0.000000 0.000000 0.000000
						}
					}
				}
			}
		}
		JOINT Spine
		{
			OFFSET 6.901965 -2.603729 -0.000002
			CHANNELS 3 Zrotation Yrotation Xrotation
			JOINT Spine1
			{
				OFFSET 12.588101 -0.000004 0.000003
				CHANNELS 3 Zrotation Yrotation Xrotation
				JOINT Spine2
				{
					OFFSET 12.343205 0.000006 0.000001
					CHANNELS 3 Zrotation Yrotation Xrotation
					JOINT Neck
					{
						OFFSET 25.832897 -0.000008 -0.000001
						CHANNELS 3 Zrotation Yrotation Xrotation
						JOINT Head
						{
							OFFSET 11.766601 0.000009 -0.000008
							CHANNELS 3 Zrotation Yrotation Xrotation
							End Site
							{
								OFFSET 0.000000 0.000000 0.000000
							}
						}
					}
					JOINT LeftShoulder
					{
						OFFSET 19.745893 -1.480370 6.000097
						CHANNELS 3 Zrotation Yrotation Xrotation
						JOINT LeftArm
						{
							OFFSET 11.284136 -0.000006 -0.000021
							CHANNELS 3 Zrotation Yrotation Xrotation
							JOINT LeftForeArm
							{
								OFFSET 33.000042 0.000005 0.000030
								CHANNELS 3 Zrotation Yrotation Xrotation
								JOINT LeftHand
								{
									OFFSET 25.200008 0.000013 0.000010
									CHANNELS 3 Zrotation Yrotation Xrotation
									End Site
									{
										OFFSET 0.000000 0.000000 0.000000
									}
								}
							}
						}
					}
					JOINT RightShoulder
					{
						OFFSET 19.746088 -1.480379 -6.000076
						CHANNELS 3 Zrotation Yrotation Xrotation
						JOINT RightArm
						{
							OFFSET 11.284133 -0.000016 -0.000013
							CHANNELS 3 Zrotation Yrotation Xrotation
							JOINT RightForeArm
							{
								OFFSET 33.000095 0.000019 0.000001
								CHANNELS 3 Zrotation Yrotation Xrotation
								JOINT RightHand
								{
									OFFSET 25.199785 0.000138 0.000422
									CHANNELS 3 Zrotation Yrotation Xrotation
									End Site
									{
										OFFSET 0.000000 0.000000 0.000000
									}
								}
							}
						}
					}
				}
			}
		}
	}
}
MOTION
Frames: 9
Frame Time: 0.016667
18.187437 0.000000 -226.440625 0.000000 191.780463 0.000000 0.159840 66.612518 0.076717 102.414399 -2.962797 -176.832963 142.047525 -35.874611 175.988143 -39.507357 -1.298638 -4.337133 55.198678 -5.164199 -17.030520 21.454553 0.003090 -0.000001 -178.965259 25.419496 -170.029309 -78.385757 -2.749854 8.478508 106.826207 -5.496600 34.486010 21.454563 -0.003108 -0.000017 13.158978 -1.264613 -2.445819 16.356140 -2.170309 -5.046840 16.039123 -2.200570 -5.033674 -15.920324 -10.760510 -5.177867 -21.937178 21.396662 -17.704465 173.686300 -83.351869 4.758292 -6.541833 39.592468 -11.464792 -111.211694 -2.091176 3.386040 7.601423 8.040992 75.536051 -167.849207 69.806190 13.882995 13.048191 -58.744966 -38.525445 -59.577683 19.512464 -2.423766 4.484623 11.404761 -46.389510 
18.813611 0.000000 -229.014968 0.000000 190.488073 0.000000 0.377527 68.217603 -0.595913 102.132538 -3.106115 -177.732361 146.669291 -35.579801 174.616983 -34.245653 0.121275 -6.189199 58.659860 -4.267203 -19.580388 21.454552 0.003097 0.000003 179.782597 24.285073 -170.496114 -76.519837 -2.498046 8.565763 107.800138 -5.839642 33.039023 21.454558 -0.003110 -0.000017 12.824037 -1.032501 -2.426452 15.674753 -1.726308 -4.971013 15.357790 -1.756122 -4.960522 -15.838709 -10.087051 -4.737321 -22.471564 20.934225 -16.966884 -175.891920 -81.672899 -5.751365 0.893204 42.691193 -8.489140 -111.417891 -1.713494 3.368818 7.548318 8.844095 66.956068 -166.326337 69.484080 15.456042 10.819041 -57.876595 -35.068388 -62.572233 18.705342 -2.493191 4.483527 11.433034 -47.266059 
19.415923 0.000000 -231.524097 0.000000 189.264429 0.000000 0.538762 69.877327 -1.213490 101.787692 -3.408732 -178.663294 151.010455 -34.435190 174.612010 -29.363214 1.463946 -9.691024 65.024623 0.621776 -16.698984 21.454551 0.003094 0.000000 178.481285 23.194503 -170.921700 -74.727582 -2.355791 8.719306 108.184595 -6.029591 31.123720 21.454557 -0.003108 -0.000017 12.502088 -0.855122 -2.348193 15.021830 -1.397721 -4.787875 14.704832 -1.426440 -4.779363 -15.709469 -9.046221 -4.411158 -22.771212 20.005187 -15.957810 -168.013268 -79.568973 -13.736148 7.377759 44.517994 -4.852852 -111.981695 -1.506261 3.378176 7.416081 9.262754 60.974068 -165.189695 69.322913 16.630709 9.370080 -57.150414 -32.138296 -66.026365 17.767441 -2.556796 3.925946 11.799329 -47.602552 
19.995975 0.000000 -233.972135 0.000000 188.109225 0.000000 0.650116 71.578373 -1.744285 101.481912 -3.823716 -179.650641 155.067928 -32.853052 175.423906 -25.414163 2.564299 -13.743443 72.234845 6.177781 -11.472417 21.454550 0.003088 -0.000005 177.260980 22.031760 -171.523775 -72.943726 -2.250427 8.967373 108.029659 -6.134859 28.978378 21.454558 -0.003105 -0.000017 12.218527 -0.736426 -2.201944 14.448360 -1.191758 -4.478818 14.131243 -1.218621 -4.471549 -15.475865 -8.036982 -4.250125 -23.079434 19.130406 -15.139494 -162.669198 -77.414203 -19.189522 12.777237 45.438942 -1.124234 -112.831431 -1.394736 3.406267 7.395197 9.614517 57.278525 -164.369622 69.257896 17.478202 8.375775 -56.617980 -29.386742 -69.817672 16.557915 -2.623408 3.119423 12.319749 -47.818981 
20.555367 0.000000 -236.363201 0.000000 187.021668 0.000000 0.719968 73.307426 -2.157165 101.318540 -4.304925 179.278217 158.862646 -31.166705 176.442515 -22.892547 2.990487 -17.273308 77.277866 9.965362 -8.053881 21.454550 0.003084 -0.000008 176.263851 20.675003 -172.516235 -71.102603 -2.111710 9.343179 107.387300 -6.227759 26.838153 21.454560 -0.003102 -0.000017 11.998575 -0.680506 -1.978552 14.004637 -1.116230 -4.025089 13.687325 -1.140362 -4.018279 -15.085637 -7.457707 -4.305480 -23.611547 18.831535 -14.965269 -159.172939 -75.611153 -22.782888 17.079487 45.865505 2.301352 -113.895596 -1.304112 3.445338 7.608520 10.226889 55.557325 -163.820392 69.221164 18.045818 7.537377 -56.305888 -26.492716 -73.820977 14.933269 -2.683301 2.370340 12.807399 -48.329567 
21.095698 0.000000 -238.701416 0.000000 186.000547 0.000000 0.762867 75.044219 -2.443455 101.365863 -4.816280 178.156076 162.327668 -29.581192 177.123437 -22.089539 2.323774 -19.301037 77.660382 11.067650 -9.573714 21.454550 0.003087 -0.000004 175.653658 19.069060 -173.960066 -69.120312 -1.889066 9.867058 106.361386 -6.371435 24.875337 21.454560 -0.003102 -0.000017 11.857529 -0.685253 -1.683771 13.720511 -1.165773 -3.437092 13.402954 -1.186361 -3.429990 -14.558459 -7.562058 -4.598538 -24.429861 19.398837 -15.689814 -156.949447 -74.468709 -25.078150 20.374784 46.136324 5.232165 -115.097309 -1.176305 3.487173 8.162093 11.295856 55.353800 -163.487670 69.189476 18.389747 6.655350 -56.242926 -23.279448 -77.899697 12.800188 -2.712618 1.869618 13.083378 -49.349373 
21.618569 0.000000 -240.990900 0.000000 185.044297 0.000000 0.810485 76.740692 -2.683034 101.546706 -5.363970 177.267368 165.100262 -28.036998 177.262096 -22.758059 0.813498 -19.169274 76.456590 10.381120 -11.739727 21.454551 0.003093 0.000000 175.608835 17.437896 -175.323566 -66.842512 -1.599977 10.491730 105.253296 -6.604901 23.013971 21.454560 -0.003104 -0.000017 11.771899 -0.722749 -1.382880 13.547741 -1.278417 -2.841064 13.229971 -1.295409 -2.833290 -14.210297 -8.034048 -5.007648 -24.977468 20.236319 -16.733158 -155.622416 -73.938645 -26.448400 22.682294 46.271583 7.720860 -116.338092 -1.019572 3.527914 9.136107 12.533621 55.561358 -163.234103 69.324669 18.650295 5.868909 -56.540389 -20.087179 -81.877315 10.271472 -2.705488 1.358584 13.021801 -50.327275 
22.125581 0.000000 -243.235775 0.000000 184.151053 0.000000 0.877964 78.356439 -2.948112 101.719789 -5.955206 176.898930 166.820920 -26.377145 176.856052 -24.588127 -0.925155 -16.640349 77.001840 9.083130 -10.090554 21.454552 0.003096 0.000000 176.164313 16.012410 -176.063220 -64.152009 -1.283713 11.149626 104.319527 -6.926332 21.145771 21.454557 -0.003107 -0.000018 11.702075 -0.764901 -1.143142 13.406739 -1.392034 -2.367422 13.088836 -1.406166 -2.358969 -14.314826 -8.539086 -5.393219 -24.723045 20.764334 -17.469229 -155.053812 -73.878079 -27.032390 23.999385 46.191452 9.854397 -117.539511 -0.861402 3.566825 10.521434 13.627413 55.240345 -162.963392 69.753525 18.925458 5.320145 -57.253691 -17.356349 -85.620177 7.558406 -2.683768 0.601897 12.542730 -50.626175 
22.618334 0.000000 -245.440161 0.000000 183.318707 0.000000 0.919217 79.909477 -3.184889 101.646069 -6.545945 177.087314 167.456745 -24.300094 176.399607 -27.112747 -2.000304 -13.013427 77.871143 7.260643 -7.516726 21.454553 0.003096 -0.000001 176.935600 14.731004 -176.086211 -61.151202 -0.996269 11.757139 103.431405 -7.245019 19.283919 21.454555 -0.003110 -0.000018 11.581580 -0.808694 -0.979684 13.164881 -1.500541 -2.045244 12.846898 -1.512726 -2.036140 -14.658445 -9.213328 -5.730932 -24.022524 21.229331 -18.087430 -155.064827 -74.142512 -27.015119 24.382972 45.789375 11.692561 -118.724697 -0.739342 3.606887 12.117209 14.560051 54.814282 -162.869302 70.280970 19.017098 4.934375 -58.061838 -15.510705 -89.176458 5.074340 -2.664900 -0.116460 11.697930 -50.038412 
